<svg width="64" height="64" viewBox="0 0 64 64" fill="none" xmlns="http://www.w3.org/2000/svg">
<rect width="64" height="64" rx="16" fill="black"/>
<path d="M47.6032 45.1186C47.0509 45.1186 46.6032 45.5664 46.6032 46.1186V52.5C46.6032 53.0523 47.0509 53.5 47.6032 53.5H54C54.5523 53.5 55 53.0523 55 52.5V46.1186C55 45.5664 54.5523 45.1186 54 45.1186H47.6032Z" fill="white"/>
<path d="M10 10.5C9.44771 10.5 9 10.9477 9 11.5V17.8814C9 18.4336 9.44772 18.8814 10 18.8814H13.2024C13.7547 18.8814 14.2024 19.3291 14.2024 19.8814V34.6906C14.2024 35.5811 15.2786 36.0275 15.9088 35.3984L24.3136 27.0091C24.5015 26.8215 24.6071 26.5669 24.6071 26.3013V19.8814C24.6071 19.3291 25.0549 18.8814 25.6071 18.8814H29.3958C29.6607 18.8814 29.9148 18.7763 30.1023 18.5891L36.4954 12.2078C37.1263 11.5781 36.6803 10.5 35.789 10.5H10Z" fill="white"/>
<path d="M55 11.5C55 10.9477 54.5523 10.5 54 10.5H47.0168C46.752 10.5 46.4979 10.6051 46.3104 10.7922L42.4048 14.6907L12.2142 44.8256C12.0262 45.0132 11.9206 45.2679 11.9206 45.5334V49.3093V52.5C11.9206 53.0523 12.3684 53.5 12.9206 53.5H19.9038C20.1687 53.5 20.4228 53.3949 20.6102 53.2078L54.7065 19.1744C54.8944 18.9868 55 18.7321 55 18.4666V11.5Z" fill="white"/>
</svg>
